<svg width="685" height="180" viewBox="0 0 685 180" fill="none" xmlns="http://www.w3.org/2000/svg">
<path d="M169.668 87.8807C169.668 38.2514 142.575 0.0164795 73.7008 0.0164795H0.0164795V175.745H73.7008C142.575 175.745 169.668 137.51 169.668 87.8807ZM119.532 87.8807C119.532 122.571 100.035 135.485 72.9417 135.485H47.8734V40.2771H72.9417C100.035 40.2771 119.532 53.1908 119.532 87.8807Z" fill="currentColor"/>
<path d="M181.129 175.745H320.395V135.738H228.986V105.606H309.253V67.6237H228.986V40.0239H318.116V0.0164795H181.129V175.745Z" fill="currentColor"/>
<path d="M482.513 61.0405C482.513 16.7284 454.153 0.0164795 410.094 0.0164795H333.877V175.745H381.734V122.065H410.094C454.153 122.065 482.513 105.352 482.513 61.0405ZM432.884 61.0405C432.884 78.259 424.781 85.3489 405.283 85.3489H381.734V36.7321H405.283C424.781 36.7321 432.884 43.822 432.884 61.0405Z" fill="currentColor"/>
<path d="M487.736 41.0367H543.188V175.745H591.045V41.0367H646.498V0.0164795H487.736V41.0367Z" fill="currentColor"/>
<path d="M626.613 151.142C626.613 167.044 639.486 179.918 655.39 179.918C671.292 179.918 684.293 167.044 684.293 151.142C684.293 135.24 671.292 122.24 655.39 122.24C639.486 122.24 626.613 135.24 626.613 151.142ZM632.166 151.142C632.166 138.016 642.515 127.288 655.39 127.288C668.26 127.288 678.738 138.016 678.738 151.142C678.738 164.268 668.26 174.869 655.39 174.869C642.515 174.869 632.166 164.268 632.166 151.142ZM641.884 165.404H650.969V155.559H656.148L661.572 165.404H671.417L664.853 153.792C667.885 152.53 670.152 149.123 670.152 145.336C670.152 138.647 665.862 135.492 658.54 135.492H641.884V165.404ZM660.939 145.462C660.939 147.86 659.43 148.871 656.524 148.871H650.969V142.559H656.524C659.43 142.559 660.939 143.317 660.939 145.462Z" fill="currentColor"/>
</svg>
