<?xml version="1.0" standalone="no"?>
<!DOCTYPE svg PUBLIC "-//W3C//DTD SVG 20010904//EN"
 "http://www.w3.org/TR/2001/REC-SVG-20010904/DTD/svg10.dtd">
<svg version="1.0" xmlns="http://www.w3.org/2000/svg"
 width="531.000000pt" height="531.000000pt" viewBox="0 0 531.000000 531.000000"
 preserveAspectRatio="xMidYMid meet">
<metadata>
Created by potrace 1.14, written by Peter Selinger 2001-2017
</metadata>
<g transform="translate(0.000000,531.000000) scale(0.100000,-0.100000)"
fill="#000000" stroke="none">
<path d="M2 2674 l3 -1307 580 0 c521 0 741 5 815 18 66 11 107 17 127 20 12
2 37 8 55 14 18 6 44 12 58 15 73 12 334 126 383 166 6 5 39 31 72 57 102 81
171 159 241 273 78 127 142 304 160 440 2 19 6 42 9 50 6 21 18 184 18 255 0
219 -43 441 -116 605 -11 25 -21 47 -22 50 -14 56 -145 230 -238 315 -81 75
-228 169 -312 200 -27 10 -54 21 -60 25 -14 9 -150 49 -225 67 -20 4 -56 10
-110 18 -25 3 -58 9 -75 12 -16 3 -330 8 -698 10 l-667 4 2 -1307z m1110 705
c297 -7 492 -116 594 -334 27 -58 52 -148 61 -220 9 -69 8 -249 -1 -310 -4
-27 -9 -59 -11 -70 -5 -34 -34 -114 -63 -174 -29 -60 -137 -177 -187 -201 -16
-8 -33 -19 -36 -23 -6 -9 -136 -54 -177 -62 -72 -14 -175 -19 -367 -19 l-210
0 -2 706 -2 707 32 3 c30 3 177 2 369 -3z"/>
<path d="M3958 3885 c-2 -2 -32 -5 -68 -9 -80 -7 -77 -7 -220 -44 -133 -35
-348 -150 -451 -243 -19 -17 -47 -43 -64 -58 -35 -31 -89 -92 -125 -140 -14
-18 -31 -39 -37 -46 -7 -8 -13 -17 -13 -20 0 -4 -8 -19 -19 -33 -74 -105 -155
-310 -177 -446 -3 -21 -8 -48 -11 -60 -2 -11 -6 -77 -8 -146 -4 -162 16 -296
69 -455 31 -94 102 -228 170 -323 91 -126 266 -285 386 -351 116 -64 263 -122
346 -137 15 -3 30 -7 34 -9 19 -12 123 -20 255 -20 157 0 215 6 303 29 29 8
53 14 55 14 4 -2 82 24 92 31 6 3 16 6 24 8 31 4 200 98 275 151 285 205 488
548 523 882 11 115 6 289 -11 376 -37 183 -129 399 -221 515 -11 14 -33 43
-50 64 -130 168 -364 330 -580 403 -134 45 -222 60 -382 66 -51 1 -94 2 -95 1z
m247 -240 c217 -41 394 -133 543 -285 62 -62 142 -164 142 -178 0 -6 4 -12 9
-14 30 -11 128 -264 147 -381 11 -60 12 -283 3 -332 -5 -28 -11 -59 -13 -70
-27 -141 -112 -319 -210 -440 -148 -182 -389 -330 -591 -362 -16 -3 -50 -9
-75 -13 -66 -12 -218 -9 -301 6 -218 42 -383 128 -540 284 -78 78 -169 195
-169 219 0 5 -4 11 -8 13 -16 6 -97 213 -108 273 -1 6 -3 12 -4 15 -1 3 -3 14
-4 25 -2 11 -7 45 -11 75 -8 61 -9 232 0 270 3 14 8 43 11 65 16 109 81 265
161 390 46 71 244 275 267 275 3 0 24 13 48 29 85 57 221 111 344 136 86 17
267 17 359 0z"/>
<path d="M3435 2643 l0 -658 155 -5 c85 -3 175 -4 200 -2 l46 4 -1 214 c0 118
2 214 5 215 21 4 212 4 219 -1 9 -5 42 -61 69 -115 8 -16 23 -42 34 -57 10
-14 18 -33 18 -41 0 -9 4 -17 8 -19 5 -1 32 -46 60 -98 l51 -95 215 -3 c174
-2 216 0 216 11 0 7 -5 18 -11 24 -10 10 -20 28 -77 135 -19 35 -40 70 -48 79
-8 8 -14 18 -14 21 0 4 -17 37 -39 75 -74 131 -92 165 -89 167 2 1 15 8 29 15
74 37 151 136 180 232 44 145 10 322 -82 420 -36 40 -127 97 -162 103 -12 3
-22 5 -22 6 0 1 -27 8 -60 15 -44 9 -175 13 -480 14 l-420 2 0 -658z m770 325
c51 -27 68 -54 68 -106 0 -57 -24 -107 -61 -126 -38 -20 -120 -30 -202 -25 -8
0 -47 -1 -86 -2 -38 -1 -74 0 -80 3 -7 5 -12 234 -5 269 0 4 76 6 169 5 129
-2 174 -6 197 -18z"/>
</g>
</svg>
